<svg width="154" height="72" viewBox="0 0 154 72" fill="none" xmlns="http://www.w3.org/2000/svg">
<g clip-path="url(#clip0_65_16)">
<path d="M38.0692 43.4268C38.1547 43.3281 38.2534 43.236 38.3521 43.1505C38.8587 42.7294 39.3982 42.6044 40.043 42.5978C40.7734 42.5912 41.5168 42.4333 42.234 42.2622C43.7539 41.9069 45.6356 41.3082 46.4712 39.8673C48.1819 36.9131 47.8727 32.7087 47.8727 32.7087C47.8727 32.7087 44.9119 34.4194 42.2669 34.7287C39.6219 35.0379 41.7998 34.2615 41.7998 34.2615C41.7998 34.2615 45.379 32.3929 47.0897 30.373C48.8004 28.3465 48.024 27.103 48.024 27.103C48.024 27.103 48.807 21.1879 49.7413 19.7865C50.6756 18.3851 51.6099 13.4043 52.8534 11.5357C54.0969 9.66715 54.722 6.86426 58.7684 7.18008C62.8214 7.48932 66.8678 7.33141 69.3549 6.71293C71.8486 6.09446 74.3356 6.87084 76.2042 7.64723C78.0728 8.42362 83.3628 9.36449 87.2579 9.36449C91.1464 9.36449 94.7256 8.12096 97.2193 9.04867C99.7064 9.98297 104.536 12.6279 107.648 16.9902C110.76 21.3458 111.536 22.7473 111.694 24.1487C111.806 25.1554 112.181 26.1687 112.556 27.103C113.306 28.9847 114.352 30.7612 115.695 32.2811C116.478 33.1693 117.366 33.9588 118.353 34.6168C119.399 35.3142 120.754 36.1893 122.051 36.0314C122.439 35.9853 122.676 35.7419 123.031 35.6301C123.459 35.4985 123.827 35.505 123.873 36.0248C123.919 36.5578 123.452 36.8407 123.202 37.2223C122.814 37.321 122.11 37.0907 121.722 37.0249C121.022 36.9007 120.326 36.7537 119.636 36.5841C118.248 36.2354 116.616 35.8011 115.543 34.7879C110.247 29.8071 109.372 26.0239 109.53 26.6424C109.681 27.2674 108.905 28.6623 109.53 30.5309C110.155 32.3995 110.622 36.7552 110.773 38.9396C110.924 41.1174 112.484 46.0981 113.885 48.2825C113.885 48.2825 113.885 49.684 114.043 50.4604C114.201 51.2367 114.043 52.3289 114.977 53.1053C115.912 53.8817 108.128 54.5068 107.503 54.191C106.885 53.8817 108.286 53.0988 108.595 51.8552C108.905 50.6117 108.286 45.9402 107.352 43.9203C106.496 42.0648 104.858 40.6042 103.628 39.8936C103.516 39.8278 103.404 39.7686 103.305 39.716C103.207 39.6633 104.845 36.9394 105.72 35.0905C107.207 31.9784 108.306 29.0702 108.207 29.0176C108.082 28.9518 106.964 32.0771 105.102 35.2353C104.167 36.8144 102.062 39.0909 102.062 39.0909C102.062 39.0909 99.4169 41.8938 98.9497 43.6045C98.4826 45.3151 96.9298 50.138 96.9298 51.3881C96.9298 52.6316 97.3969 54.8094 96.4627 54.9673C95.5284 55.1187 90.0805 55.1187 89.6133 54.8094C89.1462 54.5002 88.679 54.3423 89.6133 52.9408C90.5476 51.5394 91.9491 49.98 92.7255 47.1772C93.5084 44.3743 95.0612 42.8149 94.4361 40.3278C93.8177 37.8408 92.2583 36.9065 90.5476 36.5907C88.8369 36.2814 80.2704 33.7878 79.8032 33.6364C79.3361 33.4785 79.3361 37.6829 78.8689 38.3079C78.4018 38.933 75.441 40.1765 75.441 40.1765C75.441 40.1765 74.5067 49.6708 74.6646 50.4472C74.8159 51.2236 76.5332 52.0065 76.3753 53.0922C76.224 54.1778 73.5724 55.4279 71.0853 54.9608C68.5983 54.4936 68.1311 54.0265 68.4404 53.2435C68.7496 52.4671 68.9075 51.8421 68.4404 51.5328C67.9732 51.2236 65.7888 49.6642 65.6375 47.9535C65.4796 46.2429 64.5453 44.6835 66.1046 42.6636C67.6574 40.6371 68.2824 38.7685 68.5983 37.8342C68.9141 36.8999 68.7562 35.3405 68.7562 33.9457C68.7562 32.5442 68.289 28.8071 67.3547 27.5635C67.0258 27.1293 66.6639 26.7542 66.3349 26.445C66.1967 26.32 68.9075 24.4251 70.3484 21.3064C71.888 17.964 72.1578 13.3912 72.0525 13.3122C71.9275 13.2201 71.4735 17.5429 69.7563 20.6813C68.1048 23.7013 65.1769 25.537 65.1769 25.537C65.1769 25.537 62.6833 26.9385 61.5976 26.7806C60.5054 26.6292 61.1305 25.0699 60.9726 24.6027C60.8147 24.1356 60.3475 23.5105 58.9526 24.1356C57.5512 24.7606 54.1233 26.3134 54.1233 26.3134C54.1233 26.3134 53.9719 35.1826 51.7875 37.6763C49.6097 40.1699 46.6489 43.1242 41.201 43.9005C40.6549 43.9795 39.5627 43.9005 39.1811 44.348C38.8653 44.7164 38.8324 45.2888 38.7008 45.7362C38.6416 45.9468 38.556 46.3284 38.3587 46.4534C38.2205 46.5389 37.7204 46.5982 37.5494 46.5258C36.9967 46.2889 37.2665 44.8414 37.4573 44.4466C37.6086 44.0914 37.7928 43.7361 38.0692 43.4268Z" fill="#61277A"/>
<path d="M69.3549 6.70635C66.8612 7.3314 62.8148 7.48931 58.7618 7.18007C54.7154 6.86426 54.0903 9.66714 52.8468 11.5357C51.6033 13.4043 50.669 18.385 49.7347 19.7865C48.8004 21.1879 48.024 27.1029 48.024 27.1029C48.024 27.1029 48.8004 28.3465 47.0897 30.373C45.379 32.3929 41.7997 34.2615 41.7997 34.2615C41.7997 34.2615 39.6219 35.0379 42.2669 34.7286C44.9118 34.4194 47.8726 32.7087 47.8726 32.7087C47.8726 32.7087 48.1819 36.9131 46.4712 39.8673C45.6356 41.3082 43.7538 41.9069 42.234 42.2622C41.5168 42.4333 40.7733 42.5912 40.043 42.5978C39.3982 42.6044 38.8587 42.736 38.352 43.1505C38.2468 43.236 38.1547 43.3281 38.0691 43.4268C37.7994 43.736 37.6086 44.0913 37.4309 44.4598C37.2467 44.8546 36.9769 46.3021 37.523 46.5389C37.6941 46.6113 38.1876 46.5521 38.3257 46.4666C38.5297 46.3415 38.6086 45.9599 38.6744 45.7428C38.806 45.2954 38.8455 44.723 39.1547 44.3545C39.5364 43.9071 40.622 43.9861 41.1747 43.9071C46.6225 43.1241 49.5833 40.1699 51.7612 37.6829C53.9456 35.1892 54.0969 26.32 54.0969 26.32C54.0969 26.32 57.5248 24.7606 58.9263 24.1421C60.3277 23.5171 60.7949 24.1422 60.9462 24.6093C61.1041 25.0764 60.4791 26.6358 61.5713 26.7871C62.6635 26.945 65.1505 25.5436 65.1505 25.5436C65.1505 25.5436 68.0784 23.7013 69.7299 20.6879C71.4472 17.5494 71.9012 13.2333 72.0262 13.3188C72.1314 13.3977 71.8551 17.9771 70.3221 21.3129C68.8877 24.4317 66.1704 26.3266 66.3085 26.4516C66.6375 26.7608 66.9994 27.1358 67.3284 27.5635C68.2627 28.807 68.7298 32.5442 68.7298 33.9457C68.7298 35.3405 68.8877 36.8999 68.5719 37.8342C68.2627 38.7685 67.6376 40.6371 66.0783 42.6636C64.5255 44.6835 65.4532 46.2429 65.6111 47.9535C65.7624 49.6642 67.9403 51.2236 68.414 51.5328C68.8811 51.842 68.7232 52.4671 68.414 53.2435C68.1048 54.0199 68.5653 54.487 71.059 54.9542C73.5526 55.4213 76.1976 54.1778 76.3489 53.0856C76.5068 51.9934 74.7896 51.217 74.6383 50.4406C74.4803 49.6642 75.4146 40.1699 75.4146 40.1699C75.4146 40.1699 78.3754 38.9264 78.8426 38.3013C79.3097 37.6763 79.3097 33.4719 79.7769 33.6299C80.244 33.7812 88.8106 36.2748 90.5213 36.5841C92.232 36.8933 93.7913 37.8276 94.4098 40.3213C95.0349 42.8149 93.4755 44.3677 92.6991 47.1706C91.9227 49.9735 90.5213 51.5328 89.587 52.9277C88.6527 54.3291 89.1198 54.487 89.587 54.7963C90.0541 55.1055 95.502 55.1055 96.4363 54.9542C97.3706 54.7963 96.9034 52.6184 96.9034 51.3749C96.9034 50.1314 98.4562 45.302 98.9234 43.5913C99.3905 41.8806 102.035 39.0711 102.035 39.0711C102.035 39.0711 104.141 36.7946 105.075 35.2155C106.937 32.0573 108.056 28.9321 108.181 28.9979C108.279 29.0505 107.181 31.9587 105.694 35.0708C104.819 36.9196 103.18 39.6436 103.279 39.6962C103.384 39.7488 103.496 39.8081 103.601 39.8738C104.832 40.5844 106.47 42.0451 107.325 43.9005C108.26 45.9205 108.885 50.5919 108.569 51.8355C108.26 53.079 106.858 53.862 107.477 54.1712C108.102 54.4804 115.885 53.862 114.951 53.0856C114.017 52.3092 114.175 51.217 114.017 50.4406C113.859 49.6642 113.859 48.2628 113.859 48.2628C112.457 46.0849 110.898 41.1042 110.747 38.9198C110.595 36.742 110.128 32.3797 109.503 30.5112C108.878 28.6426 109.655 27.2411 109.503 26.6226C109.345 25.9976 110.227 29.7874 115.517 34.7681C116.589 35.7748 118.228 36.209 119.616 36.5643C120.307 36.7354 120.998 36.8802 121.702 37.0052C122.09 37.071 122.794 37.3012 123.182 37.2026C123.432 36.8209 123.906 36.538 123.86 36.0051C123.814 35.4853 123.445 35.4787 123.018 35.6103C122.662 35.7222 122.432 35.9656 122.044 36.0117C120.754 36.1696 119.399 35.2945 118.346 34.5971C117.359 33.9457 116.471 33.1496 115.688 32.2613C114.346 30.7414 113.306 28.965 112.55 27.0832C112.181 26.1489 111.8 25.1357 111.688 24.129C111.53 22.7275 110.753 21.3261 107.641 16.9704C104.529 12.6082 99.6997 9.96322 97.2127 9.02893C94.719 8.09463 91.1398 9.34475 87.2512 9.34475C83.3561 9.34475 78.0662 8.41045 76.1976 7.62748C74.8027 7.04848 73.0657 6.46948 71.2366 6.46948C70.6247 6.48264 69.9865 6.54844 69.3549 6.70635Z" fill="#61277A"/>
<mask id="mask0_65_16" style="mask-type:luminance" maskUnits="userSpaceOnUse" x="37" y="6" width="87" height="50">
<path d="M69.3549 6.70635C66.8612 7.3314 62.8148 7.48931 58.7618 7.18007C54.7154 6.86426 54.0903 9.66714 52.8468 11.5357C51.6033 13.4043 50.669 18.385 49.7347 19.7865C48.8004 21.1879 48.024 27.1029 48.024 27.1029C48.024 27.1029 48.8004 28.3465 47.0897 30.373C45.379 32.3929 41.7997 34.2615 41.7997 34.2615C41.7997 34.2615 39.6219 35.0379 42.2669 34.7286C44.9118 34.4194 47.8726 32.7087 47.8726 32.7087C47.8726 32.7087 48.1819 36.9131 46.4712 39.8673C45.6356 41.3082 43.7538 41.9069 42.234 42.2622C41.5168 42.4333 40.7733 42.5912 40.043 42.5978C39.3982 42.6044 38.8587 42.736 38.352 43.1505C38.2468 43.236 38.1547 43.3281 38.0691 43.4268C37.7994 43.736 37.6086 44.0913 37.4309 44.4598C37.2467 44.8546 36.9769 46.3021 37.523 46.5389C37.6941 46.6113 38.1876 46.5521 38.3257 46.4666C38.5297 46.3415 38.6086 45.9599 38.6744 45.7428C38.806 45.2954 38.8455 44.723 39.1547 44.3545C39.5364 43.9071 40.622 43.9861 41.1747 43.9071C46.6225 43.1241 49.5833 40.1699 51.7612 37.6829C53.9456 35.1892 54.0969 26.32 54.0969 26.32C54.0969 26.32 57.5248 24.7606 58.9263 24.1421C60.3277 23.5171 60.7949 24.1422 60.9462 24.6093C61.1041 25.0764 60.4791 26.6358 61.5713 26.7871C62.6635 26.945 65.1505 25.5436 65.1505 25.5436C65.1505 25.5436 68.0784 23.7013 69.7299 20.6879C71.4472 17.5494 71.9012 13.2333 72.0262 13.3188C72.1314 13.3977 71.8551 17.9771 70.3221 21.3129C68.8877 24.4317 66.1704 26.3266 66.3085 26.4516C66.6375 26.7608 66.9994 27.1358 67.3284 27.5635C68.2627 28.807 68.7298 32.5442 68.7298 33.9457C68.7298 35.3405 68.8877 36.8999 68.5719 37.8342C68.2627 38.7685 67.6376 40.6371 66.0783 42.6636C64.5255 44.6835 65.4532 46.2429 65.6111 47.9535C65.7624 49.6642 67.9403 51.2236 68.414 51.5328C68.8811 51.842 68.7232 52.4671 68.414 53.2435C68.1048 54.0199 68.5653 54.487 71.059 54.9542C73.5526 55.4213 76.1976 54.1778 76.3489 53.0856C76.5068 51.9934 74.7896 51.217 74.6383 50.4406C74.4803 49.6642 75.4146 40.1699 75.4146 40.1699C75.4146 40.1699 78.3754 38.9264 78.8426 38.3013C79.3097 37.6763 79.3097 33.4719 79.7769 33.6299C80.244 33.7812 88.8106 36.2748 90.5213 36.5841C92.232 36.8933 93.7913 37.8276 94.4098 40.3213C95.0349 42.8149 93.4755 44.3677 92.6991 47.1706C91.9227 49.9735 90.5213 51.5328 89.587 52.9277C88.6527 54.3291 89.1198 54.487 89.587 54.7963C90.0541 55.1055 95.502 55.1055 96.4363 54.9542C97.3706 54.7963 96.9034 52.6184 96.9034 51.3749C96.9034 50.1314 98.4562 45.302 98.9234 43.5913C99.3905 41.8806 102.035 39.0711 102.035 39.0711C102.035 39.0711 104.141 36.7946 105.075 35.2155C106.937 32.0573 108.056 28.9321 108.181 28.9979C108.279 29.0505 107.181 31.9587 105.694 35.0708C104.819 36.9196 103.18 39.6436 103.279 39.6962C103.384 39.7488 103.496 39.8081 103.601 39.8738C104.832 40.5844 106.47 42.0451 107.325 43.9005C108.26 45.9205 108.885 50.5919 108.569 51.8355C108.26 53.079 106.858 53.862 107.477 54.1712C108.102 54.4804 115.885 53.862 114.951 53.0856C114.017 52.3092 114.175 51.217 114.017 50.4406C113.859 49.6642 113.859 48.2628 113.859 48.2628C112.457 46.0849 110.898 41.1042 110.747 38.9198C110.595 36.742 110.128 32.3797 109.503 30.5112C108.878 28.6426 109.655 27.2411 109.503 26.6226C109.345 25.9976 110.227 29.7874 115.517 34.7681C116.589 35.7748 118.228 36.209 119.616 36.5643C120.307 36.7354 120.998 36.8802 121.702 37.0052C122.09 37.071 122.794 37.3012 123.182 37.2026C123.432 36.8209 123.906 36.538 123.86 36.0051C123.814 35.4853 123.445 35.4787 123.018 35.6103C122.662 35.7222 122.432 35.9656 122.044 36.0117C120.754 36.1696 119.399 35.2945 118.346 34.5971C117.359 33.9457 116.471 33.1496 115.688 32.2613C114.346 30.7414 113.306 28.965 112.55 27.0832C112.181 26.1489 111.8 25.1357 111.688 24.129C111.53 22.7275 110.753 21.3261 107.641 16.9704C104.529 12.6082 99.6997 9.96322 97.2127 9.02893C94.719 8.09463 91.1398 9.34475 87.2512 9.34475C83.3561 9.34475 78.0662 8.41045 76.1976 7.62748C74.8027 7.04848 73.0657 6.46948 71.2366 6.46948C70.6247 6.48264 69.9865 6.54844 69.3549 6.70635Z" fill="white"/>
</mask>
<g mask="url(#mask0_65_16)">
<path d="M36.9702 6.08789H123.912V55.4345H36.9702V6.08789Z" fill="#61277A"/>
</g>
<path d="M120.445 36.992C120.386 37.038 120.327 37.0907 120.268 37.1499C119.873 37.5183 119.485 37.8473 119.09 37.2552C118.886 36.9591 119.827 36.1301 120.011 35.8011C120.452 35.0049 122.274 35.3142 122.537 35.709C123.116 36.584 123.952 38.4526 125.551 38.321C127.143 38.1895 129.005 37.1696 129.446 37.1236C129.887 37.0775 131.308 37.1696 131.749 36.8604C132.19 36.5511 133.387 35.6168 134.052 35.5774C134.716 35.5313 134.493 36.288 134.493 36.288C134.493 36.288 136.091 36.3735 136.262 37.1301C136.44 37.8802 136.308 38.6829 137.019 38.9461C137.73 39.2093 139.631 39.1237 141.5 38.5447C143.362 37.9723 145.619 37.8802 147.217 39.9199C148.81 41.9595 148.987 42.0911 149.52 41.9135C150.053 41.7358 150.145 41.3345 149.744 40.8015C149.343 40.2686 147.967 39.2488 148.106 38.9C148.237 38.5447 148.553 38.1434 148.948 38.2816C149.343 38.4132 151.297 39.9659 151.382 40.7621C151.474 41.5582 151.56 42.7557 150.981 43.0649C150.408 43.3741 148.895 43.6439 148.5 43.6439C148.099 43.6439 148.987 46.0849 149.56 46.9666C150.001 47.6508 150.626 48.2364 151.191 48.8088C151.685 49.3089 152.83 50.0326 152.974 50.7366C153.099 51.3222 153.027 51.7828 153.29 52.3486C153.455 52.7039 153.817 53.1645 153.817 53.5724C153.817 53.8817 150.58 54.7699 150.007 54.8094C149.428 54.8554 149.566 52.7697 149.566 52.7697C149.566 52.7697 148.902 52.2828 147.481 50.9998C146.066 49.7102 145.263 48.6049 145.263 48.6049C145.263 48.6049 143.335 45.677 143.27 45.9467C143.184 46.3481 144.125 47.5587 144.316 47.9009C144.559 48.3417 144.796 48.743 144.928 49.2234C145.112 49.8945 145.178 50.5919 145.395 51.263C145.599 51.8815 145.882 53.2566 145.369 53.7435C144.599 54.487 143.033 54.0396 142.125 53.9935C141.105 53.9343 141.73 53.0527 141.973 52.4144C142.197 51.8354 141.927 50.8617 141.973 50.3748C142.02 49.8879 141.973 49.3549 141.796 49.3549C141.618 49.3549 141.223 49.401 141.177 49.7958C141.131 50.1905 141.085 50.9472 140.776 51.3946C140.467 51.8354 140.513 52.7237 140.513 53.0329C140.513 53.7632 140.598 54.4409 139.822 54.7502C139.25 54.9739 138.585 54.9015 137.986 54.9212C137.651 54.9344 136.269 55.0463 136.308 54.4278C136.328 54.2041 136.657 53.9212 136.743 53.6909C136.92 53.1974 136.848 52.6447 137.013 52.1513C137.144 51.7499 137.322 51.4407 137.276 50.8222C137.23 50.1971 136.874 49.4931 136.874 49.4931C136.874 49.4931 136.565 49.6313 136.256 49.8024C135.947 49.98 133.019 52.1052 132.933 52.2828C132.848 52.4605 133.019 53.8356 132.802 54.1449C132.584 54.4541 132.446 54.5462 132.005 54.5462C131.565 54.5462 129.038 54.237 128.729 53.8356C128.42 53.4343 128.512 52.9934 128.729 52.7303C128.953 52.4671 129.926 51.842 130.012 51.4012C130.104 50.9538 130.499 50.2498 131.078 49.7629C131.657 49.276 132.762 48.1706 133.071 47.5061C133.374 46.8547 133.591 46.1178 133.92 45.4862C134.243 44.8743 134.703 44.3479 134.979 43.69C135.433 42.5977 135.769 39.9791 135.729 39.9199C135.677 39.8409 134.973 42.2359 134.446 43.1965C133.927 44.1571 133.381 45.144 133.381 45.144C133.381 45.144 132.933 45.8546 132.361 45.8546C131.788 45.8546 131.341 45.2756 130.946 44.9203C130.545 44.565 130.591 44.1703 129.926 44.1242C129.262 44.0781 126.913 43.861 126.558 43.9005C126.202 43.9466 126.735 43.1899 127.137 42.657C127.531 42.124 127.623 42.124 127.268 41.8608C126.913 41.5977 125.229 41.1963 124.031 39.9593C122.834 38.7158 122.393 37.3867 121.86 37.0314C121.248 36.6301 120.912 36.6169 120.445 36.992Z" fill="#61277A"/>
<path d="M120.011 35.801C119.827 36.13 118.892 36.9524 119.09 37.2551C119.485 37.8473 119.873 37.5183 120.267 37.1498L120.445 36.9919C120.912 36.6169 121.248 36.63 121.866 37.0446C122.399 37.3999 122.84 38.7289 124.038 39.9725C125.235 41.216 126.919 41.6108 127.275 41.8739C127.63 42.1371 127.538 42.1371 127.143 42.6701C126.742 43.203 126.209 43.9531 126.564 43.9136C126.919 43.8741 129.268 44.0913 129.933 44.1373C130.597 44.1834 130.551 44.5781 130.953 44.9334C131.347 45.2887 131.795 45.8611 132.367 45.8611C132.946 45.8611 133.387 45.1506 133.387 45.1506C133.387 45.1506 133.94 44.157 134.453 43.1964C134.973 42.2358 135.683 39.8409 135.736 39.9198C135.775 39.979 135.44 42.5911 134.986 43.6899C134.71 44.3413 134.249 44.8676 133.927 45.4795C133.598 46.1112 133.381 46.8481 133.078 47.4995C132.769 48.164 131.657 49.2759 131.084 49.7562C130.505 50.2431 130.11 50.9537 130.018 51.3946C129.933 51.8354 128.959 52.4539 128.735 52.7236C128.607 52.8792 128.537 53.0746 128.537 53.2763C128.537 53.478 128.607 53.6734 128.735 53.829C129.045 54.2303 131.571 54.5396 132.012 54.5396C132.453 54.5396 132.591 54.454 132.808 54.1382C133.032 53.829 132.854 52.4539 132.94 52.2762C133.025 52.0986 135.953 49.9734 136.262 49.7957C136.572 49.6181 136.881 49.4865 136.881 49.4865C136.881 49.4865 137.236 50.1971 137.282 50.8156C137.328 51.434 137.151 51.7433 137.019 52.1446C136.855 52.6381 136.927 53.1973 136.749 53.6842C136.664 53.9145 136.341 54.1974 136.315 54.4277C136.269 55.0396 137.657 54.9278 137.993 54.9146C138.131 54.908 138.276 54.908 138.427 54.908C138.901 54.908 139.394 54.9146 139.828 54.737C140.605 54.4343 140.519 53.75 140.519 53.0197C140.519 52.7105 140.473 51.8222 140.783 51.3814C141.092 50.934 141.138 50.1839 141.184 49.7891C141.23 49.3878 141.625 49.3417 141.802 49.3417C141.98 49.3417 142.026 49.8747 141.98 50.3616C141.934 50.8484 142.204 51.8222 141.98 52.4012C141.737 53.0394 141.111 53.9211 142.131 53.9803C143.039 54.0264 144.599 54.4738 145.375 53.7303C145.882 53.2434 145.605 51.8749 145.395 51.2498C145.171 50.5853 145.112 49.8813 144.928 49.2101C144.796 48.7298 144.559 48.3219 144.316 47.8877C144.125 47.5455 143.177 46.3283 143.27 45.9335C143.335 45.6638 145.263 48.5917 145.263 48.5917C145.263 48.5917 146.066 49.697 147.48 50.9866C148.895 52.2762 149.566 52.7565 149.566 52.7565C149.566 52.7565 149.428 54.8422 150.007 54.7962C150.579 54.7501 153.817 53.8685 153.817 53.5592C153.817 53.1513 153.455 52.6907 153.29 52.3354C153.027 51.7696 153.093 51.309 152.974 50.7234C152.83 50.0194 151.685 49.2957 151.191 48.7956C150.625 48.2232 150 47.6376 149.56 46.9534C148.981 46.0717 148.099 43.6307 148.5 43.6307C148.895 43.6307 150.408 43.3675 150.981 43.0517C151.56 42.7424 151.468 41.545 151.382 40.7488C151.29 39.9527 149.342 38.3999 148.941 38.2684C148.546 38.1302 148.231 38.5315 148.099 38.8868C147.967 39.2421 149.342 40.262 149.737 40.7883C150.139 41.3213 150.047 41.7226 149.514 41.8937C148.981 42.0713 148.803 41.9397 147.211 39.9001C145.612 37.8604 143.355 37.9525 141.493 38.525C139.631 39.104 137.723 39.1895 137.012 38.9263C136.302 38.6631 136.44 37.8604 136.256 37.1104C136.078 36.3537 134.486 36.2682 134.486 36.2682C134.486 36.2682 134.71 35.5181 134.045 35.5576C133.381 35.6036 132.183 36.5314 131.742 36.8406C131.295 37.1498 129.88 37.0643 129.439 37.1038C128.999 37.1498 127.137 38.1697 125.538 38.2947C123.939 38.4263 123.103 36.5511 122.524 35.6826C122.38 35.4655 121.774 35.2747 121.182 35.2747C120.702 35.3076 120.215 35.4391 120.011 35.801Z" fill="#61277A"/>
<mask id="mask1_65_16" style="mask-type:luminance" maskUnits="userSpaceOnUse" x="119" y="35" width="35" height="20">
<path d="M120.011 35.801C119.827 36.13 118.892 36.9524 119.09 37.2551C119.485 37.8473 119.873 37.5183 120.267 37.1498L120.445 36.9919C120.912 36.6169 121.248 36.63 121.866 37.0446C122.399 37.3999 122.84 38.7289 124.038 39.9725C125.235 41.216 126.919 41.6108 127.275 41.8739C127.63 42.1371 127.538 42.1371 127.143 42.6701C126.742 43.203 126.209 43.9531 126.564 43.9136C126.919 43.8741 129.268 44.0913 129.933 44.1373C130.597 44.1834 130.551 44.5781 130.953 44.9334C131.347 45.2887 131.795 45.8611 132.367 45.8611C132.946 45.8611 133.387 45.1506 133.387 45.1506C133.387 45.1506 133.94 44.157 134.453 43.1964C134.973 42.2358 135.683 39.8409 135.736 39.9198C135.775 39.979 135.44 42.5911 134.986 43.6899C134.71 44.3413 134.249 44.8676 133.927 45.4795C133.598 46.1112 133.381 46.8481 133.078 47.4995C132.769 48.164 131.657 49.2759 131.084 49.7562C130.505 50.2431 130.11 50.9537 130.018 51.3946C129.933 51.8354 128.959 52.4539 128.735 52.7236C128.607 52.8792 128.537 53.0746 128.537 53.2763C128.537 53.478 128.607 53.6734 128.735 53.829C129.045 54.2303 131.571 54.5396 132.012 54.5396C132.453 54.5396 132.591 54.454 132.808 54.1382C133.032 53.829 132.854 52.4539 132.94 52.2762C133.025 52.0986 135.953 49.9734 136.262 49.7957C136.572 49.6181 136.881 49.4865 136.881 49.4865C136.881 49.4865 137.236 50.1971 137.282 50.8156C137.328 51.434 137.151 51.7433 137.019 52.1446C136.855 52.6381 136.927 53.1973 136.749 53.6842C136.664 53.9145 136.341 54.1974 136.315 54.4277C136.269 55.0396 137.657 54.9278 137.993 54.9146C138.131 54.908 138.276 54.908 138.427 54.908C138.901 54.908 139.394 54.9146 139.828 54.737C140.605 54.4343 140.519 53.75 140.519 53.0197C140.519 52.7105 140.473 51.8222 140.783 51.3814C141.092 50.934 141.138 50.1839 141.184 49.7891C141.23 49.3878 141.625 49.3417 141.802 49.3417C141.98 49.3417 142.026 49.8747 141.98 50.3616C141.934 50.8484 142.204 51.8222 141.98 52.4012C141.737 53.0394 141.111 53.9211 142.131 53.9803C143.039 54.0264 144.599 54.4738 145.375 53.7303C145.882 53.2434 145.605 51.8749 145.395 51.2498C145.171 50.5853 145.112 49.8813 144.928 49.2101C144.796 48.7298 144.559 48.3219 144.316 47.8877C144.125 47.5455 143.177 46.3283 143.27 45.9335C143.335 45.6638 145.263 48.5917 145.263 48.5917C145.263 48.5917 146.066 49.697 147.48 50.9866C148.895 52.2762 149.566 52.7565 149.566 52.7565C149.566 52.7565 149.428 54.8422 150.007 54.7962C150.579 54.7501 153.817 53.8685 153.817 53.5592C153.817 53.1513 153.455 52.6907 153.29 52.3354C153.027 51.7696 153.093 51.309 152.974 50.7234C152.83 50.0194 151.685 49.2957 151.191 48.7956C150.625 48.2232 150 47.6376 149.56 46.9534C148.981 46.0717 148.099 43.6307 148.5 43.6307C148.895 43.6307 150.408 43.3675 150.981 43.0517C151.56 42.7424 151.468 41.545 151.382 40.7488C151.29 39.9527 149.342 38.3999 148.941 38.2684C148.546 38.1302 148.231 38.5315 148.099 38.8868C147.967 39.2421 149.342 40.262 149.737 40.7883C150.139 41.3213 150.047 41.7226 149.514 41.8937C148.981 42.0713 148.803 41.9397 147.211 39.9001C145.612 37.8604 143.355 37.9525 141.493 38.525C139.631 39.104 137.723 39.1895 137.012 38.9263C136.302 38.6631 136.44 37.8604 136.256 37.1104C136.078 36.3537 134.486 36.2682 134.486 36.2682C134.486 36.2682 134.71 35.5181 134.045 35.5576C133.381 35.6036 132.183 36.5314 131.742 36.8406C131.295 37.1498 129.88 37.0643 129.439 37.1038C128.999 37.1498 127.137 38.1697 125.538 38.2947C123.939 38.4263 123.103 36.5511 122.524 35.6826C122.38 35.4655 121.774 35.2747 121.182 35.2747C120.702 35.3076 120.215 35.4391 120.011 35.801Z" fill="white"/>
</mask>
<g mask="url(#mask1_65_16)">
<path d="M118.893 35.0049H153.83V55.0528H118.893V35.0049Z" fill="#61277A"/>
</g>
<path d="M3.71746 62.7641H0.657973V60.6125H9.36272V62.7641H6.27033V71.9425H3.71746V62.7641ZM12.4156 66.2907C12.4156 68.5277 13.4552 70.0871 15.1725 70.0871C16.9029 70.0871 17.8964 68.4422 17.8964 66.2381C17.8964 64.1852 16.9358 62.4417 15.1725 62.4417C13.4289 62.4417 12.4156 64.0931 12.4156 66.2907ZM20.6006 66.1591C20.6006 69.8897 18.3635 72.1268 15.0343 72.1268C11.6919 72.1268 9.70485 69.587 9.70485 66.3433C9.70485 62.9483 11.8893 60.4086 15.2185 60.4086C18.7057 60.4086 20.6006 63.0141 20.6006 66.1591ZM31.7463 71.4162C30.9568 71.6859 29.4632 72.0544 27.9631 72.0544C25.8971 72.0544 24.397 71.5346 23.3574 70.5411C22.331 69.5476 21.7586 68.0672 21.7586 66.4025C21.7783 62.639 24.5154 60.4875 28.2329 60.4875C29.6935 60.4875 30.8186 60.7705 31.3779 61.0271L30.8384 63.093C30.2133 62.8101 29.4632 62.6061 28.2131 62.6061C26.0813 62.6061 24.4496 63.797 24.4496 66.271C24.4496 68.6264 25.93 69.9818 28.0289 69.9818C28.6013 69.9818 29.0685 69.916 29.2724 69.8305V67.4421H27.5223V65.4419H31.7398V71.4162H31.7463ZM40.4774 67.146H36.3125V69.8371H40.9643V71.9425H33.7597V60.6125H40.734V62.7114H36.3125V65.0669H40.4774V67.146ZM44.9975 62.7641H41.9381V60.6125H50.6494V62.7641H47.5504V71.9425H44.9975V62.7641ZM54.5774 60.6125V64.9616H58.7949V60.6125H61.3477V71.9425H58.7949V67.1987H54.5774V71.9425H52.0179V60.6125H54.5774ZM70.3222 67.146H66.1508V69.8371H70.8091V71.9425H63.5979V60.6125H70.5723V62.7114H66.1508V65.0669H70.3222V67.146ZM75.0924 65.6393H76.0991C77.3755 65.6393 78.1321 65.0011 78.1321 64.0076C78.1321 62.9812 77.4281 62.4417 76.2504 62.4417C75.6253 62.4417 75.2766 62.4746 75.0924 62.5272V65.6393ZM72.5527 60.7639C73.3751 60.6323 74.5858 60.527 75.9675 60.527C77.6453 60.527 78.823 60.777 79.6323 61.4153C80.3231 61.9548 80.6916 62.7575 80.6916 63.8036C80.6916 65.2314 79.6652 66.2249 78.6914 66.5802V66.6328C79.481 66.9486 79.9152 67.6921 80.2047 68.7317C80.56 70.0279 80.8956 71.5017 81.1127 71.9425H78.4874C78.3164 71.607 78.0335 70.699 77.7176 69.3041C77.3952 67.8764 76.9084 67.5079 75.849 67.4882H75.0924V71.9425H72.5527V60.7639ZM85.9289 60.6125H92.8374V62.7114H88.4818V65.2972H92.548V67.3829H88.4818V71.9425H85.9289V60.6125ZM96.9497 66.2907C96.9497 68.5277 97.9892 70.0871 99.7065 70.0871C101.437 70.0871 102.43 68.4422 102.43 66.2381C102.43 64.1852 101.47 62.4417 99.7065 62.4417C97.9629 62.4417 96.9497 64.0931 96.9497 66.2907ZM105.135 66.1591C105.135 69.8897 102.898 72.1268 99.5683 72.1268C96.2259 72.1268 94.2389 69.587 94.2389 66.3433C94.2389 62.9483 96.4233 60.4086 99.7526 60.4086C103.24 60.4086 105.135 63.0141 105.135 66.1591ZM109.352 65.6393H110.359C111.635 65.6393 112.392 65.0011 112.392 64.0076C112.392 62.9812 111.688 62.4417 110.51 62.4417C109.885 62.4417 109.536 62.4746 109.352 62.5272V65.6393ZM106.812 60.7639C107.635 60.6323 108.845 60.527 110.227 60.527C111.905 60.527 113.083 60.777 113.892 61.4153C114.583 61.9548 114.951 62.7575 114.951 63.8036C114.951 65.2314 113.925 66.2249 112.951 66.5802V66.6328C113.741 66.9486 114.175 67.6921 114.464 68.7317C114.82 70.0279 115.155 71.5017 115.372 71.9425H112.747C112.576 71.607 112.293 70.699 111.977 69.3041C111.655 67.8764 111.168 67.5079 110.109 67.4882H109.352V71.9425H106.812V60.7639ZM123.518 67.146H119.346V69.8371H124.005V71.9425H116.794V60.6125H123.768V62.7114H119.346V65.0669H123.518V67.146ZM128.538 71.9425L124.906 60.6125H127.716L129.091 65.4025C129.479 66.7644 129.828 68.0409 130.097 69.4555H130.15C130.433 68.0935 130.788 66.7513 131.176 65.4551L132.624 60.6125H135.348L131.532 71.9425H128.538ZM143.296 67.146H139.125V69.8371H143.783V71.9425H136.572V60.6125H143.546V62.7114H139.125V65.0669H143.296V67.146ZM148.066 65.6393H149.073C150.349 65.6393 151.106 65.0011 151.106 64.0076C151.106 62.9812 150.402 62.4417 149.224 62.4417C148.599 62.4417 148.25 62.4746 148.066 62.5272V65.6393ZM145.526 60.7639C146.349 60.6323 147.56 60.527 148.941 60.527C150.619 60.527 151.797 60.777 152.606 61.4153C153.297 61.9548 153.665 62.7575 153.665 63.8036C153.665 65.2314 152.639 66.2249 151.665 66.5802V66.6328C152.455 66.9486 152.889 67.6921 153.178 68.7317C153.534 70.0279 153.869 71.5017 154.086 71.9425H151.461C151.29 71.607 151.007 70.699 150.691 69.3041C150.369 67.8764 149.882 67.5079 148.823 67.4882H148.066V71.9425H145.526V60.7639ZM13.5736 35.7221C14.0474 35.3931 15.3369 34.393 16.0475 34.347C16.7647 34.3009 16.5213 35.1102 16.5213 35.1102C16.5213 35.1102 18.2385 35.2023 18.4228 36.0182C18.6136 36.8275 18.4688 37.6828 19.232 37.9657C19.9953 38.2487 22.0415 38.1565 24.0417 37.5381C26.0419 36.9196 28.4697 36.8209 30.187 39.0119C30.6607 39.6172 31.1937 40.5581 31.8582 40.9792C32.299 41.2687 33.4504 41.1042 33.9571 41.1042C34.9177 41.1108 35.8586 41.4726 36.6613 41.9858C37.3521 42.4267 38.2733 43.0188 39.0891 43.0057C40.0497 42.9925 40.609 42.3609 40.8787 41.4858C41.0038 41.0647 41.0038 40.5515 41.5301 40.5318C42.0433 40.5054 42.3394 40.8871 42.3789 41.3739C42.5236 42.9728 41.6946 44.19 40.1682 44.5913C38.8786 44.9269 37.5758 44.1703 36.431 43.5978C35.7335 43.2491 34.8519 43.0715 34.1018 42.9333C33.6347 42.8543 33.1675 42.8675 32.6938 42.8675C32.3451 42.8675 31.5621 42.8609 31.4568 43.1965C31.3779 43.4531 31.5818 43.9268 31.6608 44.1702C31.9108 44.9927 32.2398 45.848 32.707 46.5718C33.1807 47.3021 33.8518 47.9338 34.4571 48.5522C34.9835 49.0852 36.2139 49.8616 36.3652 50.6182C36.4968 51.2498 36.4244 51.7499 36.7073 52.3552C36.885 52.7368 37.2732 53.2369 37.2732 53.6711C37.2732 54.0067 33.7992 54.9541 33.1807 55.0068C32.5622 55.0528 32.707 52.8158 32.707 52.8158C32.707 52.8158 31.9898 52.296 30.4699 50.9143C28.9434 49.5326 28.0881 48.3417 28.0881 48.3417C28.0881 48.3417 26.0156 45.1967 25.9498 45.4862C25.8511 45.9138 26.8709 47.2232 27.0749 47.5916C27.3315 48.0653 27.5946 48.493 27.7328 49.0128C27.9302 49.7365 27.996 50.4866 28.2329 51.1972C28.4566 51.8683 28.7592 53.3356 28.2065 53.8619C27.3775 54.6646 25.6997 54.1843 24.7194 54.1317C23.6206 54.0725 24.2983 53.125 24.5615 52.4342C24.7983 51.8157 24.5154 50.763 24.5615 50.2432C24.6075 49.7234 24.5615 49.151 24.3707 49.151C24.1799 49.151 23.7522 49.197 23.7061 49.6247C23.6601 50.0524 23.6074 50.8617 23.2785 51.342C22.9429 51.8157 22.989 52.7697 22.989 53.1053C22.989 53.8882 23.0811 54.6186 22.2455 54.9476C21.627 55.1976 20.9164 55.112 20.2716 55.1318C19.9097 55.1449 18.4228 55.2634 18.4688 54.6054C18.4885 54.362 18.8438 54.0593 18.9294 53.8093C19.1202 53.2829 19.0478 52.6908 19.2189 52.1578C19.3636 51.7302 19.5544 51.3946 19.5084 50.7301C19.4623 50.0655 19.0807 49.3023 19.0807 49.3023C19.0807 49.3023 18.7452 49.447 18.4162 49.6313C18.0806 49.8221 14.9422 52.1118 14.8435 52.296C14.7514 52.4868 14.9356 53.9672 14.6987 54.2962C14.4619 54.6317 14.3171 54.7238 13.8434 54.7238C13.3697 54.7238 10.6523 54.3949 10.3233 53.9672C9.98777 53.5395 10.0865 53.0592 10.3233 52.7697C10.5602 52.4868 11.6063 51.8223 11.705 51.342C11.8037 50.8617 12.2314 50.105 12.8499 49.5786C13.4684 49.0589 14.6593 47.868 14.9948 47.1508C15.3172 46.4534 15.5541 45.6638 15.9094 44.9861C16.2581 44.3282 16.7515 43.7623 17.0476 43.0583C17.5345 41.8806 17.8964 39.0711 17.8569 39.0119C17.7977 38.9329 17.041 41.5055 16.4818 42.5319C15.9225 43.5649 15.3369 44.6242 15.3369 44.6242C15.3369 44.6242 14.8566 45.3875 14.2382 45.3875C13.6197 45.3875 13.146 44.769 12.7183 44.3874C12.2906 44.0058 12.3367 43.5781 11.6195 43.532C10.9089 43.486 8.38236 43.2491 8.00075 43.2952C7.61914 43.3412 8.19156 42.5385 8.61923 41.9661C9.0469 41.3937 9.14559 41.3871 8.76398 41.1108C7.17173 39.9528 5.69791 43.6044 4.77019 44.6242C3.63851 45.8744 2.59236 47.0455 0.901417 46.9666C0.605337 46.1046 0.296098 45.7164 0.960633 45.6638C2.44761 45.5388 2.98055 44.3611 3.40822 43.8215C4.27015 42.7293 4.82283 41.4266 5.67159 40.3146C6.41508 39.3409 7.15199 38.2618 8.1455 37.5249C8.55343 37.2157 8.9811 37.117 9.42851 36.8933C10.0404 36.584 10.5536 36.13 11.2576 36.0116C11.9814 35.88 12.9288 36.1761 13.5736 35.7221Z" fill="#61277A"/>
<path d="M16.0473 34.347C15.3367 34.3931 14.0471 35.3932 13.5734 35.7287C13.1589 36.0183 12.6259 35.9985 12.0996 35.9854C11.8101 35.9722 11.5206 35.9656 11.264 36.0117C10.56 36.1301 10.0468 36.5907 9.43486 36.8933C8.98745 37.117 8.56636 37.2157 8.15185 37.525C7.15834 38.2619 6.42143 39.3409 5.67794 40.3147C4.82917 41.4266 4.27649 42.7294 3.41457 43.8216C2.9869 44.3677 2.45396 45.5454 0.96698 45.6639C0.302446 45.7165 0.611685 46.1047 0.907764 46.9666C2.59871 47.0456 3.64486 45.8678 4.77654 44.6243C5.70425 43.6045 7.17807 39.9594 8.77032 41.1108C9.15194 41.3872 9.05324 41.4003 8.62557 41.9662C8.1979 42.5386 7.62548 43.3479 8.0071 43.2952C8.38871 43.2492 10.9087 43.486 11.6258 43.5321C12.343 43.5782 12.2904 44.0124 12.7246 44.3874C13.1523 44.769 13.626 45.3875 14.2445 45.3875C14.863 45.3875 15.3433 44.6243 15.3433 44.6243C15.3433 44.6243 15.9355 43.5584 16.4881 42.532C17.0474 41.499 17.804 38.9264 17.8633 39.0119C17.9027 39.0712 17.5474 41.8806 17.054 43.0584C16.7579 43.7624 16.2644 44.3282 15.9157 44.9862C15.5604 45.6639 15.3301 46.4534 15.0012 47.1508C14.6656 47.868 13.4747 49.0589 12.8562 49.5787C12.2377 50.1051 11.8101 50.8683 11.7114 51.342C11.6193 51.8157 10.5731 52.4803 10.3297 52.7698C10.0928 53.0593 9.99412 53.533 10.3297 53.9673C10.6652 54.3949 13.376 54.7239 13.8497 54.7239C14.3235 54.7239 14.4682 54.6318 14.7051 54.2962C14.9419 53.9607 14.7511 52.4869 14.8498 52.2961C14.9419 52.1052 18.087 49.8156 18.4225 49.6313C18.7581 49.4405 19.0871 49.2958 19.0871 49.2958C19.0871 49.2958 19.4687 50.059 19.5147 50.7235C19.5608 51.3881 19.37 51.7236 19.2252 52.1513C19.0476 52.6842 19.1265 53.2764 18.9357 53.8093C18.8436 54.0594 18.4949 54.362 18.4752 54.6055C18.4291 55.2634 19.9161 55.145 20.278 55.1318C20.4293 55.1253 20.5806 55.1253 20.7385 55.1318C21.2517 55.1318 21.7781 55.1384 22.2518 54.9476C23.0874 54.6186 22.9953 53.8883 22.9953 53.1053C22.9953 52.7698 22.9493 51.8223 23.2848 51.342C23.6204 50.8617 23.6664 50.059 23.7125 49.6248C23.7585 49.1971 24.1862 49.151 24.377 49.151C24.5678 49.151 24.6205 49.7234 24.5678 50.2432C24.5218 50.7696 24.8047 51.8157 24.5678 52.4342C24.3046 53.1251 23.6269 54.0725 24.7257 54.1317C25.7061 54.1844 27.3773 54.6581 28.2063 53.862C28.7524 53.3422 28.4563 51.8684 28.2326 51.1973C27.9958 50.4867 27.9234 49.73 27.7326 49.0129C27.5944 48.4931 27.3312 48.0588 27.0746 47.5917C26.8707 47.2232 25.8508 45.9139 25.9495 45.4862C26.0153 45.1967 28.0879 48.3417 28.0879 48.3417C28.0879 48.3417 28.9432 49.5326 30.4697 50.9143C31.9961 52.2961 32.7067 52.8158 32.7067 52.8158C32.7067 52.8158 32.562 55.0529 33.1805 55.0068C33.7989 54.9608 37.2729 54.0067 37.2729 53.6712C37.2729 53.2369 36.8847 52.7369 36.7071 52.3553C36.4242 51.75 36.4965 51.2499 36.365 50.6183C36.207 49.8616 34.9832 49.0852 34.4503 48.5523C33.8384 47.9338 33.1673 47.3088 32.6936 46.5718C32.2264 45.8481 31.8974 44.9928 31.6474 44.1703C31.5685 43.9269 31.3645 43.4597 31.4434 43.1965C31.5487 42.861 32.3317 42.8676 32.6804 42.8676H32.8909C33.2923 42.8676 33.6871 42.8676 34.0884 42.9334C34.8385 43.0649 35.7267 43.2492 36.4176 43.5979C37.5624 44.1637 38.8652 44.927 40.1548 44.5914C41.6812 44.19 42.5102 42.9728 42.3655 41.374C42.3194 40.8805 42.0299 40.5055 41.5167 40.5318C40.9904 40.5516 40.9904 41.0648 40.8654 41.4859C40.5956 42.3609 40.0363 42.9926 39.0757 43.0057C38.2599 43.0189 37.3387 42.4267 36.6479 41.9859C35.8452 41.4727 34.9109 41.1174 33.9437 41.1108C33.8055 41.1108 33.6213 41.124 33.4173 41.1306C32.8646 41.1635 32.1672 41.1898 31.8448 40.9792C31.1803 40.5516 30.6473 39.6107 30.1736 39.0119C28.4629 36.821 26.0285 36.9196 24.0283 37.5381C22.0281 38.1566 19.9819 38.2487 19.2186 37.9658C18.4554 37.6829 18.6002 36.821 18.4094 36.0183C18.2186 35.209 16.5079 35.1103 16.5079 35.1103C16.5079 35.1103 16.7316 34.347 16.0934 34.347H16.0473Z" fill="#61277A"/>
<mask id="mask2_65_16" style="mask-type:luminance" maskUnits="userSpaceOnUse" x="0" y="34" width="43" height="22">
<path d="M16.0473 34.347C15.3367 34.3931 14.0471 35.3932 13.5734 35.7287C13.1589 36.0183 12.6259 35.9985 12.0996 35.9854C11.8101 35.9722 11.5206 35.9656 11.264 36.0117C10.56 36.1301 10.0468 36.5907 9.43486 36.8933C8.98745 37.117 8.56636 37.2157 8.15185 37.525C7.15834 38.2619 6.42143 39.3409 5.67794 40.3147C4.82917 41.4266 4.27649 42.7294 3.41457 43.8216C2.9869 44.3677 2.45396 45.5454 0.96698 45.6639C0.302446 45.7165 0.611685 46.1047 0.907764 46.9666C2.59871 47.0456 3.64486 45.8678 4.77654 44.6243C5.70425 43.6045 7.17807 39.9594 8.77032 41.1108C9.15194 41.3872 9.05324 41.4003 8.62557 41.9662C8.1979 42.5386 7.62548 43.3479 8.0071 43.2952C8.38871 43.2492 10.9087 43.486 11.6258 43.5321C12.343 43.5782 12.2904 44.0124 12.7246 44.3874C13.1523 44.769 13.626 45.3875 14.2445 45.3875C14.863 45.3875 15.3433 44.6243 15.3433 44.6243C15.3433 44.6243 15.9355 43.5584 16.4881 42.532C17.0474 41.499 17.804 38.9264 17.8633 39.0119C17.9027 39.0712 17.5474 41.8806 17.054 43.0584C16.7579 43.7624 16.2644 44.3282 15.9157 44.9862C15.5604 45.6639 15.3301 46.4534 15.0012 47.1508C14.6656 47.868 13.4747 49.0589 12.8562 49.5787C12.2377 50.1051 11.8101 50.8683 11.7114 51.342C11.6193 51.8157 10.5731 52.4803 10.3297 52.7698C10.0928 53.0593 9.99412 53.533 10.3297 53.9673C10.6652 54.3949 13.376 54.7239 13.8497 54.7239C14.3235 54.7239 14.4682 54.6318 14.7051 54.2962C14.9419 53.9607 14.7511 52.4869 14.8498 52.2961C14.9419 52.1052 18.087 49.8156 18.4225 49.6313C18.7581 49.4405 19.0871 49.2958 19.0871 49.2958C19.0871 49.2958 19.4687 50.059 19.5147 50.7235C19.5608 51.3881 19.37 51.7236 19.2252 52.1513C19.0476 52.6842 19.1265 53.2764 18.9357 53.8093C18.8436 54.0594 18.4949 54.362 18.4752 54.6055C18.4291 55.2634 19.9161 55.145 20.278 55.1318C20.4293 55.1253 20.5806 55.1253 20.7385 55.1318C21.2517 55.1318 21.7781 55.1384 22.2518 54.9476C23.0874 54.6186 22.9953 53.8883 22.9953 53.1053C22.9953 52.7698 22.9493 51.8223 23.2848 51.342C23.6204 50.8617 23.6664 50.059 23.7125 49.6248C23.7585 49.1971 24.1862 49.151 24.377 49.151C24.5678 49.151 24.6205 49.7234 24.5678 50.2432C24.5218 50.7696 24.8047 51.8157 24.5678 52.4342C24.3046 53.1251 23.6269 54.0725 24.7257 54.1317C25.7061 54.1844 27.3773 54.6581 28.2063 53.862C28.7524 53.3422 28.4563 51.8684 28.2326 51.1973C27.9958 50.4867 27.9234 49.73 27.7326 49.0129C27.5944 48.4931 27.3312 48.0588 27.0746 47.5917C26.8707 47.2232 25.8508 45.9139 25.9495 45.4862C26.0153 45.1967 28.0879 48.3417 28.0879 48.3417C28.0879 48.3417 28.9432 49.5326 30.4697 50.9143C31.9961 52.2961 32.7067 52.8158 32.7067 52.8158C32.7067 52.8158 32.562 55.0529 33.1805 55.0068C33.7989 54.9608 37.2729 54.0067 37.2729 53.6712C37.2729 53.2369 36.8847 52.7369 36.7071 52.3553C36.4242 51.75 36.4965 51.2499 36.365 50.6183C36.207 49.8616 34.9832 49.0852 34.4503 48.5523C33.8384 47.9338 33.1673 47.3088 32.6936 46.5718C32.2264 45.8481 31.8974 44.9928 31.6474 44.1703C31.5685 43.9269 31.3645 43.4597 31.4434 43.1965C31.5487 42.861 32.3317 42.8676 32.6804 42.8676H32.8909C33.2923 42.8676 33.6871 42.8676 34.0884 42.9334C34.8385 43.0649 35.7267 43.2492 36.4176 43.5979C37.5624 44.1637 38.8652 44.927 40.1548 44.5914C41.6812 44.19 42.5102 42.9728 42.3655 41.374C42.3194 40.8805 42.0299 40.5055 41.5167 40.5318C40.9904 40.5516 40.9904 41.0648 40.8654 41.4859C40.5956 42.3609 40.0363 42.9926 39.0757 43.0057C38.2599 43.0189 37.3387 42.4267 36.6479 41.9859C35.8452 41.4727 34.9109 41.1174 33.9437 41.1108C33.8055 41.1108 33.6213 41.124 33.4173 41.1306C32.8646 41.1635 32.1672 41.1898 31.8448 40.9792C31.1803 40.5516 30.6473 39.6107 30.1736 39.0119C28.4629 36.821 26.0285 36.9196 24.0283 37.5381C22.0281 38.1566 19.9819 38.2487 19.2186 37.9658C18.4554 37.6829 18.6002 36.821 18.4094 36.0183C18.2186 35.209 16.5079 35.1103 16.5079 35.1103C16.5079 35.1103 16.7316 34.347 16.0934 34.347H16.0473Z" fill="white"/>
</mask>
<g mask="url(#mask2_65_16)">
<path d="M0.302246 34.301H42.5298V55.2635H0.302246V34.301Z" fill="#61277A"/>
</g>
<path d="M38.7666 42.9662C38.7666 42.9662 39.5759 43.5518 40.3786 43.8084C41.1879 44.065 41.8129 43.7755 41.8129 43.7755L42.6814 42.1504C42.6814 42.1504 41.9577 42.3412 41.3326 42.453C40.7076 42.5649 40.0365 42.578 40.0365 42.578L38.7666 42.9662ZM119.735 35.4458C119.735 35.4458 120.379 35.755 120.945 35.8998C121.827 36.1235 122.031 37.0315 122.031 37.0315L120.965 36.8472L119.287 36.4525L119.767 35.755L119.735 35.4458Z" fill="#61277A"/>
</g>
<defs>
<clipPath id="clip0_65_16">
<rect width="153.073" height="70.9999" fill="white" transform="translate(0.75 0.942627)"/>
</clipPath>
</defs>
</svg>
